PathFileType	4	(X/Y/Z)	s11c0401.trc
DataRate	CameraRate	NumFrames	NumMarkers	Units	OrigDataRate	OrigDataStartFrame	OrigNumFrames
200	200	4	48	mm	200	1000	2000
Frame#	Time	racr			lacr			c7			jug			rlel			rdr			llel			ldr			s2			lic			ric			lasi			rasi			rpsi			lpsi			rgt			lgt			rth1			rth2			rth3			rth4			rlfc			rmfc			rsh1			rsh2			rsh3			rsh4			rlmal			rcal			rtoe			rmt5			lth1			lth2			lth4			lth3			llfc			lmfc			llmal			lcal			lmt5			lsh1			lsh2			lsh3			lsh4			ltoe			SBIKE			LBIKE			RBIKE			
		X1	Y1	Z1	X2	Y2	Z2	X3	Y3	Z3	X4	Y4	Z4	X5	Y5	Z5	X6	Y6	Z6	X7	Y7	Z7	X8	Y8	Z8	X9	Y9	Z9	X10	Y10	Z10	X11	Y11	Z11	X12	Y12	Z12	X13	Y13	Z13	X14	Y14	Z14	X15	Y15	Z15	X16	Y16	Z16	X17	Y17	Z17	X18	Y18	Z18	X19	Y19	Z19	X20	Y20	Z20	X21	Y21	Z21	X22	Y22	Z22	X23	Y23	Z23	X24	Y24	Z24	X25	Y25	Z25	X26	Y26	Z26	X27	Y27	Z27	X28	Y28	Z28	X29	Y29	Z29	X30	Y30	Z30	X31	Y31	Z31	X32	Y32	Z32	X33	Y33	Z33	X34	Y34	Z34	X35	Y35	Z35	X36	Y36	Z36	X37	Y37	Z37	X38	Y38	Z38	X39	Y39	Z39	X40	Y40	Z40	X41	Y41	Z41	X42	Y42	Z42	X43	Y43	Z43	X44	Y44	Z44	X45	Y45	Z45	X46	Y46	Z46	X47	Y47	Z47	X48	Y48	Z48	
1000	5.0000	780.600459	1317.057040	-110.285368	759.805467	1304.752230	-444.593285	758.797757	1401.944751	-278.875579	699.967628	1226.459847	-276.242941	602.413370	1135.676794	37.091410	755.667476	955.356294	-70.882672	520.262551	1143.181138	-594.592025	722.103047	952.736925	-482.263523	140.704190	1332.328245	-229.572314	328.244841	1302.410309	-455.846907	361.869350	1272.670110	-49.333061	331.330835	1217.167807	-423.971226	364.102869	1200.150280	-87.208954	210.044128	1391.994350	-181.077479	193.869381	1391.227190	-273.427223	276.458396	1144.304038	-34.007593	221.162834	1192.874833	-451.529453	351.158868	1018.028159	-31.906276	412.960666	956.615672	-51.432906	433.924905	873.293516	-66.943315	442.471760	975.372063	-61.860733	480.730180	776.255935	-86.292978	468.088468	762.297736	-214.622160	361.151463	669.035187	-70.205197	306.773613	602.221743	-89.194280	226.409647	567.765297	-87.743952	322.344637	587.157566	-122.470539	112.639296	500.001061	-96.789443	65.333655	543.964397	-144.856104	189.651412	285.194208	-150.165335	131.475626	327.857065	-78.540822	309.468414	1062.757086	-470.733684	371.539760	1004.157806	-468.422178	403.619942	1022.224969	-462.415987	396.566900	917.877670	-465.452069	459.862582	788.068213	-442.456559	478.480512	775.788394	-317.630376	299.646048	387.436639	-418.284604	235.695544	356.773834	-384.608052	425.511114	274.840906	-459.221246	410.237063	669.963527	-460.864583	405.626995	585.727674	-446.140911	359.239138	510.552473	-439.878783	436.686982	578.962157	-424.655402	525.504781	282.185205	-393.006984	-214.720924	959.037475	-257.823496	-17.848154	80.842395	-461.093570	-17.837124	81.145741	-62.308531	
1001	5.0050	780.770195	1317.202353	-108.576910	760.276397	1304.970474	-443.242375	759.314364	1402.650673	-277.691961	701.429625	1227.296866	-274.552971	602.359069	1134.665171	36.677284	756.085252	954.927013	-71.854449	520.528585	1143.869317	-593.827475	722.194880	952.865663	-482.937177	142.154720	1330.154448	-231.597229	329.320268	1299.052612	-455.991109	362.599047	1272.710696	-50.740389	332.740488	1214.018006	-424.417603	364.785474	1200.197698	-88.380131	210.157029	1391.011826	-182.664971	194.440388	1389.795318	-276.406244	278.657827	1144.928767	-33.438858	220.643938	1188.278377	-450.958694	354.386672	1019.380608	-31.371896	417.424052	959.229587	-50.579080	439.827875	876.146300	-66.265371	446.593763	978.641589	-61.031712	489.089377	780.708878	-86.258691	476.089032	767.003968	-214.606704	368.459914	675.077271	-70.247517	313.289375	609.187801	-89.399452	232.513089	575.549754	-88.090656	328.808731	593.589300	-122.546348	117.646345	510.206547	-96.938999	70.525654	554.568291	-145.039102	192.856152	294.769297	-150.474563	134.847093	338.106799	-78.699375	306.482506	1056.716417	-470.569809	366.798702	996.276793	-468.041214	399.139199	1013.484573	-463.274241	389.534027	909.442115	-464.403610	450.302796	779.405390	-441.603938	468.528167	767.184456	-316.968096	296.138058	376.843520	-418.066898	232.635027	346.671370	-385.104027	422.273797	263.865861	-459.214983	401.244017	661.980814	-460.403202	398.082280	577.301443	-445.876086	353.013800	501.594977	-439.787457	429.490762	571.341184	-425.825064	522.227424	271.027019	-392.815853	-214.683756	959.024687	-257.883099	-17.832701	80.835823	-461.083838	-17.835206	81.129819	-62.318993	
1002	5.0100	780.851391	1317.256132	-106.795611	760.819766	1305.591439	-441.956025	759.646193	1403.533601	-276.473568	702.917765	1227.977085	-273.049530	602.359523	1133.377490	36.383018	756.557346	954.420283	-72.977634	520.419378	1144.149109	-591.723865	722.658204	953.027287	-484.054835	142.314040	1328.878557	-231.804079	330.358298	1295.641258	-456.255946	363.447514	1272.620615	-52.195832	334.341322	1210.824052	-424.819858	365.476349	1200.245447	-89.730508	210.241517	1389.863482	-183.926906	194.477674	1387.962628	-278.589130	280.836681	1145.458087	-32.856390	220.109914	1183.551825	-450.515152	357.414963	1020.551148	-30.895317	421.985651	961.914968	-49.676208	446.513439	879.266363	-65.670341	450.665635	981.903314	-60.690938	497.823565	785.570375	-86.042449	487.782231	771.549612	-213.101329	376.125894	680.960253	-70.318939	320.028050	616.099978	-89.804551	238.995969	583.228045	-88.512103	335.639587	600.170427	-122.644877	123.347740	520.257130	-97.146539	76.350016	564.921166	-145.183169	196.455547	303.900289	-150.607331	138.828530	347.984338	-78.918169	303.156569	1050.317286	-470.253710	361.814352	988.354310	-467.582854	394.784626	1004.769084	-462.911195	382.301687	900.873445	-463.167984	441.024939	771.200269	-440.717713	459.529456	759.591964	-315.923966	292.119786	367.072552	-418.711661	229.037097	336.846935	-385.477678	418.529854	253.160728	-459.115969	392.398740	654.047267	-459.678316	390.634755	569.178132	-445.678115	346.693220	492.741556	-439.727345	422.324106	563.457880	-425.944655	518.441282	260.009828	-392.504996	-214.645506	959.006823	-257.962461	-17.879325	80.870752	-461.030333	-17.826689	81.139292	-62.341104	
1003	5.0150	780.904418	1317.279795	-104.970562	761.474020	1306.709770	-440.757442	759.851939	1404.703899	-275.047207	704.324162	1228.849663	-271.552772	602.261123	1132.105402	36.045980	757.000467	954.032858	-74.054916	520.769628	1145.061695	-590.608535	723.259264	953.140259	-485.564371	142.472614	1327.022424	-232.395303	331.317285	1292.405347	-456.478922	364.389163	1272.486287	-53.565808	336.210906	1207.733831	-425.534646	366.159429	1200.253938	-91.033394	210.203628	1388.642866	-184.682338	194.503458	1385.693780	-279.822905	283.056647	1145.828863	-32.300380	219.485910	1178.746573	-450.197316	360.477844	1021.697272	-30.503777	426.854722	964.820377	-48.892859	453.631233	882.990032	-64.931340	454.814777	985.717220	-60.012545	506.705244	790.934984	-85.877096	497.479655	777.508823	-215.088939	384.163080	687.405448	-70.233033	327.227587	622.962068	-90.135341	246.268340	591.224079	-88.783007	342.404243	607.256609	-122.814154	129.541381	529.843946	-97.275375	82.629382	574.940335	-145.453215	200.759413	313.078708	-150.679905	143.466923	357.661278	-79.036900	299.663608	1043.804407	-469.965926	356.642845	980.302250	-467.039598	390.068099	995.921362	-462.912391	374.945147	892.495323	-461.746907	431.703798	763.421238	-439.186481	448.525318	752.886343	-313.498455	287.982246	356.413073	-417.820252	224.963352	327.735873	-385.793596	414.056143	242.841105	-459.030259	383.862224	646.097965	-458.769484	383.190545	561.197606	-445.219458	340.263758	484.230750	-439.575488	415.064538	555.733286	-425.533584	513.930935	249.265077	-392.128038	-214.639819	958.984234	-258.014849	-17.875705	80.841749	-461.014405	-17.833855	81.127473	-62.343438	
